<svg width="61" height="61" viewBox="0 0 61 61" fill="none" xmlns="http://www.w3.org/2000/svg">
<path d="M43.2083 53.375V48.2917C43.2083 45.5953 42.1372 43.0094 40.2305 41.1028C38.3239 39.1961 35.738 38.125 33.0416 38.125H12.7083C10.0119 38.125 7.42599 39.1961 5.51937 41.1028C3.61275 43.0094 2.54163 45.5953 2.54163 48.2917V53.375M58.4583 53.375V48.2917C58.4566 46.0391 57.7069 43.8508 56.3268 42.0705C54.9467 40.2901 53.0144 39.0186 50.8333 38.4554M40.6666 7.95542C42.8535 8.51535 44.7918 9.7872 46.176 11.5705C47.5602 13.3537 48.3116 15.5469 48.3116 17.8044C48.3116 20.0618 47.5602 22.255 46.176 24.0383C44.7918 25.8216 42.8535 27.0934 40.6666 27.6533M33.0416 17.7917C33.0416 23.4066 28.4899 27.9583 22.875 27.9583C17.2601 27.9583 12.7083 23.4066 12.7083 17.7917C12.7083 12.1768 17.2601 7.625 22.875 7.625C28.4899 7.625 33.0416 12.1768 33.0416 17.7917Z" stroke="#034B2C" stroke-width="4" stroke-linecap="round" stroke-linejoin="round"/>
</svg>
