<svg width="25" height="25" viewBox="0 0 25 25" fill="none" xmlns="http://www.w3.org/2000/svg">
<g clip-path="url(#clip0_104_1605)">
<path fill-rule="evenodd" clip-rule="evenodd" d="M9.25616 0.892726C9.86307 0.878288 10.4571 1.07046 10.9406 1.43796C11.4276 1.80807 11.7736 2.33509 11.9204 2.92882L12.3043 4.46416H22.3214C23.0318 4.46416 23.7132 4.74636 24.2155 5.2487C24.7179 5.75102 25 6.43232 25 7.14273V21.4284C25 22.1389 24.7179 22.8202 24.2155 23.3225C23.7132 23.8248 23.0318 24.1069 22.3214 24.1069H2.67857C1.96816 24.1069 1.28686 23.8248 0.784536 23.3225C0.282205 22.8202 0 22.1389 0 21.4284V3.5713C0 2.86089 0.282205 2.17959 0.784536 1.67726C1.28686 1.17493 1.96818 0.892726 2.67857 0.892726H9.25616ZM17.1429 11.5178C17.5867 10.9261 17.4667 10.0866 16.875 9.64284C16.2833 9.19904 15.4438 9.31896 15 9.9107L10.403 16.04L8.77862 14.9571C8.16318 14.5468 7.33166 14.7131 6.92136 15.3285C6.51107 15.9439 6.67737 16.7755 7.2928 17.1858L9.97138 18.9714C10.5628 19.3657 11.3592 19.2293 11.7857 18.6607L17.1429 11.5178Z" fill="#B1B1B1"/>
</g>
<defs>
<clipPath id="clip0_104_1605">
<rect width="25" height="25" fill="white"/>
</clipPath>
</defs>
</svg>
