<svg width="84" height="76" viewBox="0 0 84 76" fill="none" xmlns="http://www.w3.org/2000/svg">
<path d="M68 69.9996V65.9996C68 63.8779 67.1571 61.8431 65.6569 60.3428C64.1566 58.8425 62.1217 57.9996 60 57.9996H46C43.8783 57.9996 41.8434 58.8425 40.3431 60.3428C38.8429 61.8431 38 63.8779 38 65.9996V69.9996M70 49.9996L74 53.9996L82 45.9996M61 41.9996C61 46.4179 57.4183 49.9996 53 49.9996C48.5817 49.9996 45 46.4179 45 41.9996C45 37.5814 48.5817 33.9996 53 33.9996C57.4183 33.9996 61 37.5814 61 41.9996Z" stroke="#1E1E1E" stroke-width="4" stroke-linecap="round" stroke-linejoin="round"/>
<path d="M32 41.9996V37.9996C32 35.8779 31.1571 33.8431 29.6569 32.3428C28.1566 30.8425 26.1217 29.9996 24 29.9996H10C7.87827 29.9996 5.84344 30.8425 4.34315 32.3428C2.84285 33.8431 2 35.8779 2 37.9996V41.9996M36 15.9996L46 25.9996M46 15.9996L36 25.9996M25 13.9996C25 18.4179 21.4183 21.9996 17 21.9996C12.5817 21.9996 9 18.4179 9 13.9996C9 9.58136 12.5817 5.99963 17 5.99963C21.4183 5.99963 25 9.58136 25 13.9996Z" stroke="#1E1E1E" stroke-width="4" stroke-linecap="round" stroke-linejoin="round"/>
</svg>
